<?xml version="1.0" standalone="yes"?>

<svg version="1.1" viewBox="0.0 0.0 1014.0 385.0" fill="none" stroke="none" stroke-linecap="square" stroke-miterlimit="10" xmlns="http://www.w3.org/2000/svg" xmlns:xlink="http://www.w3.org/1999/xlink"><clipPath id="p.0"><path d="m0 0l1014.0 0l0 385.0l-1014.0 0l0 -385.0z" clip-rule="nonzero"></path></clipPath><g clip-path="url(#p.0)"><path fill="#000000" fill-opacity="0.0" d="m0 0l1014.0551 0l0 385.4357l-1014.0551 0z" fill-rule="nonzero"></path><path fill="#000000" d="m15.189009 278.58896l32.039368 -64.078705l83.85826 0l32.039383 64.078705l-32.039383 64.078705l-83.85826 0z" fill-rule="nonzero"></path><path stroke="#f3f3f3" stroke-width="2.0" stroke-linejoin="round" stroke-linecap="butt" d="m15.189009 278.58896l32.039368 -64.078705l83.85826 0l32.039383 64.078705l-32.039383 64.078705l-83.85826 0z" fill-rule="nonzero"></path><path fill="#000000" d="m252.77982 144.76514l32.039368 -64.07871l83.85828 0l32.039368 64.07871l-32.039368 64.078705l-83.85828 0z" fill-rule="nonzero"></path><path stroke="#f3f3f3" stroke-width="2.0" stroke-linejoin="round" stroke-linecap="butt" d="m252.77982 144.76514l32.039368 -64.07871l83.85828 0l32.039368 64.07871l-32.039368 64.078705l-83.85828 0z" fill-rule="nonzero"></path><path fill="#000000" d="m133.82135 211.67705l32.039368 -64.07872l83.85828 0l32.039368 64.07872l-32.039368 64.07869l-83.85828 0z" fill-rule="nonzero"></path><path stroke="#f3f3f3" stroke-width="2.0" stroke-linejoin="round" stroke-linecap="butt" d="m133.82135 211.67705l32.039368 -64.07872l83.85828 0l32.039368 64.07872l-32.039368 64.07869l-83.85828 0z" fill-rule="nonzero"></path><path fill="#000000" d="m133.82135 80.32487l32.039368 -64.07871l83.85828 0l32.039368 64.07871l-32.039368 64.07871l-83.85828 0z" fill-rule="nonzero"></path><path stroke="#f3f3f3" stroke-width="2.0" stroke-linejoin="round" stroke-linecap="butt" d="m133.82135 80.32487l32.039368 -64.07871l83.85828 0l32.039368 64.07871l-32.039368 64.07871l-83.85828 0z" fill-rule="nonzero"></path><path fill="#000000" fill-opacity="0.0" d="m481.67886 110.16206l519.81104 0l0 162.77165l-519.81104 0z" fill-rule="nonzero"></path><path fill="#000000" d="m580.1469 192.59476q0 4.03125 -2.0 7.59375q-1.984375 3.546875 -5.96875 6.203125q-3.984375 2.65625 -9.953125 4.203125q-5.953125 1.546875 -13.921875 1.546875q-7.96875 0 -13.96875 -1.546875q-5.984375 -1.546875 -9.96875 -4.203125q-3.984375 -2.65625 -5.984375 -6.203125q-1.984375 -3.5625 -1.984375 -7.59375l0 -35.578125l14.453125 0l0 30.390625q0 2.6875 0.671875 5.09375q0.6875 2.40625 2.578125 4.203125q1.90625 1.796875 5.3125 2.859375q3.421875 1.046875 8.890625 1.046875q5.4375 0 8.828125 -1.046875q3.40625 -1.0625 5.296875 -2.859375q1.890625 -1.796875 2.546875 -4.203125q0.671875 -2.40625 0.671875 -5.09375l0 -30.390625l14.5 0l0 35.578125l0 0zm77.609375 3.28125q0 3.125 -0.828125 5.4375q-0.8125 2.296875 -2.28125 3.96875q-1.453125 1.65625 -3.515625 2.6875q-2.046875 1.03125 -4.53125 1.640625q-2.46875 0.609375 -5.28125 0.84375q-2.8125 0.234375 -5.828125 0.234375l-38.9375 0l0 -53.671875l38.234375 0q2.3125 0 4.625 0.203125q2.328125 0.1875 4.4375 0.71875q2.109375 0.515625 3.921875 1.453125q1.828125 0.9375 3.171875 2.46875q1.34375 1.515625 2.109375 3.671875q0.765625 2.140625 0.765625 5.078125q0 5.234375 -2.578125 8.296875q-2.578125 3.0625 -8.125 4.078125q3.90625 0.28125 6.6875 1.203125q2.796875 0.90625 4.546875 2.5q1.765625 1.578125 2.578125 3.859375q0.828125 2.28125 0.828125 5.328125zm-18.078125 -22.96875q0 -1.015625 -0.3125 -1.921875q-0.3125 -0.921875 -1.140625 -1.625q-0.8125 -0.703125 -2.21875 -1.125q-1.40625 -0.4375 -3.59375 -0.4375l-21.375 0l0 10.078125l21.375 0q2.1875 0 3.59375 -0.390625q1.40625 -0.390625 2.21875 -1.046875q0.828125 -0.671875 1.140625 -1.59375q0.3125 -0.921875 0.3125 -1.9375zm3.359375 21.296875q0 -1.84375 -0.625 -2.953125q-0.625 -1.109375 -1.953125 -1.71875q-1.328125 -0.609375 -3.4375 -0.796875q-2.109375 -0.203125 -5.046875 -0.203125l-20.9375 0l0 11.375l20.9375 0q2.9375 0 5.046875 -0.1875q2.109375 -0.203125 3.4375 -0.828125q1.328125 -0.625 1.953125 -1.734375q0.625 -1.125 0.625 -2.953125zm27.929688 16.484375l0 -53.671875l14.484375 0l0 53.671875l-14.484375 0zm90.42969 -3.671875q-2.8125 1.171875 -5.671875 2.109375q-2.84375 0.9375 -5.890625 1.625q-3.046875 0.6875 -6.4375 1.03125q-3.375 0.359375 -7.234375 0.359375q-8.203125 0 -15.109375 -1.765625q-6.890625 -1.765625 -11.875 -5.296875q-4.96875 -3.53125 -7.75 -8.828125q-2.765625 -5.296875 -2.765625 -12.359375q0 -7.078125 2.765625 -12.359375q2.78125 -5.296875 7.75 -8.828125q4.984375 -3.546875 11.875 -5.296875q6.90625 -1.765625 15.109375 -1.765625q3.859375 0 7.234375 0.359375q3.390625 0.34375 6.4375 1.03125q3.046875 0.6875 5.890625 1.625q2.859375 0.9375 5.671875 2.109375l0 13.046875q-2.234375 -1.21875 -4.703125 -2.40625q-2.453125 -1.1875 -5.421875 -2.140625q-2.96875 -0.96875 -6.53125 -1.5625q-3.546875 -0.609375 -8.0 -0.609375q-6.828125 0 -11.34375 1.40625q-4.515625 1.40625 -7.21875 3.75q-2.6875 2.34375 -3.78125 5.375q-1.09375 3.015625 -1.09375 6.265625q0 2.140625 0.46875 4.234375q0.46875 2.09375 1.5625 3.953125q1.09375 1.84375 2.84375 3.40625q1.765625 1.5625 4.375 2.703125q2.625 1.125 6.125 1.78125q3.5 0.640625 8.0625 0.640625q4.453125 0 8.0 -0.5625q3.5625 -0.578125 6.53125 -1.515625q2.96875 -0.9375 5.421875 -2.125q2.46875 -1.1875 4.703125 -2.4375l0 13.046875l0 0zm73.359375 1.015625q-6.609375 2.1875 -13.1875 3.140625q-6.578125 0.96875 -13.453125 0.96875q-8.796875 0 -15.65625 -1.890625q-6.84375 -1.90625 -11.53125 -5.5q-4.6875 -3.59375 -7.15625 -8.78125q-2.453125 -5.203125 -2.453125 -11.765625q0 -6.09375 2.46875 -11.3125q2.484375 -5.21875 7.03125 -9.0625q4.5625 -3.84375 11.0 -6.015625q6.453125 -2.171875 14.375 -2.171875q7.3125 0 13.375 1.984375q6.078125 1.96875 10.4375 5.84375q4.359375 3.859375 6.75 9.53125q2.40625 5.65625 2.40625 13.03125l0 3.59375l-52.890625 0q0.703125 2.546875 2.328125 4.65625q1.625 2.109375 4.390625 3.59375q2.78125 1.484375 6.8125 2.3125q4.046875 0.8125 9.671875 0.8125q3.984375 0 7.8125 -0.484375q3.828125 -0.5 7.140625 -1.296875q3.328125 -0.796875 6.0 -1.765625q2.6875 -0.984375 4.328125 -1.96875l0 12.546875zm-10.0 -29.03125q-0.203125 -1.984375 -1.203125 -4.109375q-0.984375 -2.140625 -3.140625 -3.859375q-2.140625 -1.71875 -5.625 -2.828125q-3.46875 -1.109375 -8.671875 -1.109375q-4.875 0 -8.4375 1.21875q-3.546875 1.203125 -5.953125 3.0q-2.40625 1.796875 -3.734375 3.875q-1.328125 2.0625 -1.71875 3.8125l38.484375 0zm42.0625 8.71875q0 3.359375 0.625 5.484375q0.625 2.125 2.03125 3.375q1.40625 1.25 3.65625 1.71875q2.25 0.46875 5.53125 0.46875l27.5 0l0 11.921875l-30.46875 0q-6.328125 0 -10.765625 -1.03125q-4.4375 -1.046875 -7.25 -3.203125q-2.8125 -2.171875 -4.078125 -5.484375q-1.265625 -3.328125 -1.265625 -7.90625l0 -36.046875l14.484375 0l0 30.703125zm65.42969 0q0 3.359375 0.625 5.484375q0.625 2.125 2.03125 3.375q1.40625 1.25 3.65625 1.71875q2.25 0.46875 5.53125 0.46875l27.5 0l0 11.921875l-30.46875 0q-6.328125 0 -10.765625 -1.03125q-4.4375 -1.046875 -7.25 -3.203125q-2.8125 -2.171875 -4.078125 -5.484375q-1.265625 -3.328125 -1.265625 -7.90625l0 -36.046875l14.484375 0l0 30.703125z" fill-rule="nonzero"></path></g></svg>

